<svg id="visual" viewBox="0 0 900 600" width="900" height="600" xmlns="http://www.w3.org/2000/svg" xmlns:xlink="http://www.w3.org/1999/xlink" version="1.1"><rect x="0" y="0" width="900" height="600" fill="#ffffff"></rect><path d="M0 497L75 498.2C150 499.3 300 501.7 450 500.2C600 498.7 750 493.3 825 490.7L900 488L900 601L825 601C750 601 600 601 450 601C300 601 150 601 75 601L0 601Z" fill="#f5f9b2"></path><path d="M0 524L75 523.5C150 523 300 522 450 520.8C600 519.7 750 518.3 825 517.7L900 517L900 601L825 601C750 601 600 601 450 601C300 601 150 601 75 601L0 601Z" fill="#dee198"></path><path d="M0 550L75 550C150 550 300 550 450 550.7C600 551.3 750 552.7 825 553.3L900 554L900 601L825 601C750 601 600 601 450 601C300 601 150 601 75 601L0 601Z" fill="#c8ca7e"></path></svg>