<svg id="visual" viewBox="0 0 300 470" width="300" height="470" xmlns="http://www.w3.org/2000/svg" xmlns:xlink="http://www.w3.org/1999/xlink" version="1.1"><path d="M0 407L14 407L14 403L29 403L29 401L43 401L43 404L57 404L57 400L71 400L71 401L86 401L86 404L100 404L100 402L114 402L114 413L129 413L129 401L143 401L143 398L157 398L157 412L171 412L171 410L186 410L186 403L200 403L200 402L214 402L214 399L229 399L229 402L243 402L243 399L257 399L257 408L271 408L271 401L286 401L286 405L300 405L300 404L300 471L300 471L286 471L286 471L271 471L271 471L257 471L257 471L243 471L243 471L229 471L229 471L214 471L214 471L200 471L200 471L186 471L186 471L171 471L171 471L157 471L157 471L143 471L143 471L129 471L129 471L114 471L114 471L100 471L100 471L86 471L86 471L71 471L71 471L57 471L57 471L43 471L43 471L29 471L29 471L14 471L14 471L0 471Z" fill="#bfc8d3"></path><path d="M0 419L14 419L14 427L29 427L29 424L43 424L43 431L57 431L57 432L71 432L71 428L86 428L86 417L100 417L100 427L114 427L114 427L129 427L129 430L143 430L143 427L157 427L157 430L171 430L171 424L186 424L186 433L200 433L200 424L214 424L214 424L229 424L229 420L243 420L243 420L257 420L257 432L271 432L271 432L286 432L286 425L300 425L300 428L300 471L300 471L286 471L286 471L271 471L271 471L257 471L257 471L243 471L243 471L229 471L229 471L214 471L214 471L200 471L200 471L186 471L186 471L171 471L171 471L157 471L157 471L143 471L143 471L129 471L129 471L114 471L114 471L100 471L100 471L86 471L86 471L71 471L71 471L57 471L57 471L43 471L43 471L29 471L29 471L14 471L14 471L0 471Z" fill="#c6dfdb"></path><path d="M0 440L14 440L14 447L29 447L29 444L43 444L43 446L57 446L57 446L71 446L71 451L86 451L86 447L100 447L100 438L114 438L114 450L129 450L129 442L143 442L143 450L157 450L157 445L171 445L171 451L186 451L186 452L200 452L200 450L214 450L214 441L229 441L229 449L243 449L243 448L257 448L257 450L271 450L271 450L286 450L286 452L300 452L300 447L300 471L300 471L286 471L286 471L271 471L271 471L257 471L257 471L243 471L243 471L229 471L229 471L214 471L214 471L200 471L200 471L186 471L186 471L171 471L171 471L157 471L157 471L143 471L143 471L129 471L129 471L114 471L114 471L100 471L100 471L86 471L86 471L71 471L71 471L57 471L57 471L43 471L43 471L29 471L29 471L14 471L14 471L0 471Z" fill="#efefd8"></path></svg>