<svg id="visual" viewBox="0 0 300 470" width="300" height="470" xmlns="http://www.w3.org/2000/svg" xmlns:xlink="http://www.w3.org/1999/xlink" version="1.1"><path d="M0 109L20 109L20 147L40 147L40 81L60 81L60 114L80 114L80 128L100 128L100 81L120 81L120 104L140 104L140 90L160 90L160 151L180 151L180 128L200 128L200 194L220 194L220 151L240 151L240 128L260 128L260 86L280 86L280 142L300 142L300 137L300 0L300 0L280 0L280 0L260 0L260 0L240 0L240 0L220 0L220 0L200 0L200 0L180 0L180 0L160 0L160 0L140 0L140 0L120 0L120 0L100 0L100 0L80 0L80 0L60 0L60 0L40 0L40 0L20 0L20 0L0 0Z" fill="#fffbec"></path><path d="M0 137L20 137L20 189L40 189L40 114L60 114L60 166L80 166L80 161L100 161L100 128L120 128L120 137L140 137L140 123L160 123L160 184L180 184L180 175L200 175L200 231L220 231L220 194L240 194L240 170L260 170L260 114L280 114L280 180L300 180L300 194L300 135L300 140L280 140L280 84L260 84L260 126L240 126L240 149L220 149L220 192L200 192L200 126L180 126L180 149L160 149L160 88L140 88L140 102L120 102L120 79L100 79L100 126L80 126L80 112L60 112L60 79L40 79L40 145L20 145L20 107L0 107Z" fill="#e4ebda"></path><path d="M0 194L20 194L20 274L40 274L40 213L60 213L60 264L80 264L80 222L100 222L100 203L120 203L120 241L140 241L140 194L160 194L160 274L180 274L180 255L200 255L200 283L220 283L220 241L240 241L240 278L260 278L260 227L280 227L280 250L300 250L300 283L300 192L300 178L280 178L280 112L260 112L260 168L240 168L240 192L220 192L220 229L200 229L200 173L180 173L180 182L160 182L160 121L140 121L140 135L120 135L120 126L100 126L100 159L80 159L80 164L60 164L60 112L40 112L40 187L20 187L20 135L0 135Z" fill="#c7dbcd"></path><path d="M0 358L20 358L20 354L40 354L40 335L60 335L60 358L80 358L80 349L100 349L100 354L120 354L120 368L140 368L140 363L160 363L160 372L180 372L180 363L200 363L200 386L220 386L220 349L240 349L240 396L260 396L260 401L280 401L280 368L300 368L300 354L300 281L300 248L280 248L280 225L260 225L260 276L240 276L240 239L220 239L220 281L200 281L200 253L180 253L180 272L160 272L160 192L140 192L140 239L120 239L120 201L100 201L100 220L80 220L80 262L60 262L60 211L40 211L40 272L20 272L20 192L0 192Z" fill="#abcbc4"></path><path d="M0 405L20 405L20 438L40 438L40 401L60 401L60 433L80 433L80 438L100 438L100 438L120 438L120 433L140 433L140 401L160 401L160 438L180 438L180 433L200 433L200 429L220 429L220 433L240 433L240 438L260 438L260 438L280 438L280 410L300 410L300 410L300 352L300 366L280 366L280 399L260 399L260 394L240 394L240 347L220 347L220 384L200 384L200 361L180 361L180 370L160 370L160 361L140 361L140 366L120 366L120 352L100 352L100 347L80 347L80 356L60 356L60 333L40 333L40 352L20 352L20 356L0 356Z" fill="#93babe"></path><path d="M0 471L20 471L20 471L40 471L40 471L60 471L60 471L80 471L80 471L100 471L100 471L120 471L120 471L140 471L140 471L160 471L160 471L180 471L180 471L200 471L200 471L220 471L220 471L240 471L240 471L260 471L260 471L280 471L280 471L300 471L300 471L300 408L300 408L280 408L280 436L260 436L260 436L240 436L240 431L220 431L220 427L200 427L200 431L180 431L180 436L160 436L160 399L140 399L140 431L120 431L120 436L100 436L100 436L80 436L80 431L60 431L60 399L40 399L40 436L20 436L20 403L0 403Z" fill="#82a7b7"></path></svg>