<svg id="visual" viewBox="0 0 300 470" width="300" height="470" xmlns="http://www.w3.org/2000/svg" xmlns:xlink="http://www.w3.org/1999/xlink" version="1.1"><rect x="0" y="0" width="300" height="470" fill="#ffffff"></rect><path d="M0 399L6.3 397C12.7 395 25.3 391 37.8 393.2C50.3 395.3 62.7 403.7 75.2 403.8C87.7 404 100.3 396 112.8 392.5C125.3 389 137.7 390 150.2 390.8C162.7 391.7 175.3 392.3 187.8 396.2C200.3 400 212.7 407 225.2 410.3C237.7 413.7 250.3 413.3 262.8 409.5C275.3 405.7 287.7 398.3 293.8 394.7L300 391L300 471L293.8 471C287.7 471 275.3 471 262.8 471C250.3 471 237.7 471 225.2 471C212.7 471 200.3 471 187.8 471C175.3 471 162.7 471 150.2 471C137.7 471 125.3 471 112.8 471C100.3 471 87.7 471 75.2 471C62.7 471 50.3 471 37.8 471C25.3 471 12.7 471 6.3 471L0 471Z" fill="#f8edbd" stroke-linecap="round" stroke-linejoin="miter"></path></svg>